<?xml version="1.0" encoding="UTF-8"?>
<svg id="Layer_1" data-name="Layer 1" xmlns="http://www.w3.org/2000/svg" xmlns:xlink="http://www.w3.org/1999/xlink" viewBox="0 0 600 425">
  <defs>
    <style>
      .cls-1 {
        fill: #fff;
      }

      .cls-2 {
        fill: url(#linear-gradient);
      }
    </style>
    <linearGradient id="linear-gradient" x1="300" y1="597.92" x2="300" y2="8.79" gradientUnits="userSpaceOnUse">
      <stop offset="0" stop-color="#575858"/>
      <stop offset="1" stop-color="#a7a6a6"/>
    </linearGradient>
  </defs>
  <path class="cls-2" d="M572.71,425c17.48-38.06,27.29-80.37,27.29-125C600,134.31,465.69,0,300,0S0,134.31,0,300c0,44.63,9.82,86.94,27.29,125H572.71Z"/>
  <g>
    <path class="cls-1" d="M248.18,334.98c-21.79,0-38.08-7.4-48.9-22.2-10.82-14.79-16.23-34.55-16.23-59.27s5.41-44.47,16.23-59.27c10.81-14.79,27.11-22.19,48.9-22.19s38.08,7.4,48.9,22.19c10.81,14.8,16.22,34.56,16.22,59.27s-5.41,44.47-16.22,59.27c-10.82,14.8-27.12,22.2-48.9,22.2Zm-23.21-119.44c-4.96,9.61-7.43,22.31-7.43,38.08s2.48,28.47,7.43,38.08c4.96,9.61,12.69,14.42,23.21,14.42s18.25-4.81,23.21-14.42c4.96-9.61,7.44-22.31,7.44-38.08s-2.48-28.47-7.44-38.08c-4.96-9.61-12.69-14.43-23.21-14.43s-18.25,4.81-23.21,14.43Z"/>
    <path class="cls-1" d="M323.9,175.65h63.77v157.52h-33.8v-127.55h-29.97v-29.97Z"/>
  </g>
</svg>